<svg width="512" height="512" viewBox="0 0 512 512" fill="none" xmlns="http://www.w3.org/2000/svg">
  <!-- Shield base with gradient -->
  <path d="M256 32L72 120V248C72 352.6 147.6 447.8 256 480C364.4 447.8 440 352.6 440 248V120L256 32Z" fill="url(#shield-gradient)"/>
  
  <!-- Crossed Pencils -->
  <g transform="translate(256, 240)">
    <!-- First Pencil -->
    <g transform="rotate(-45)">
      <!-- Hexagonal pencil body -->
      <path d="M-120,-20 L-120,20 L80,20 L120,0 L80,-20 Z" fill="#F4D03F"/>
      <path d="M-120,-20 L-120,-10 L80,-10 L120,0 L80,-20 Z" fill="#F7DC6F"/>
      <path d="M-120,20 L-120,10 L80,10 L120,0 L80,20 Z" fill="#D4AC0D"/>
      
      <!-- Eraser and metal band -->
      <rect x="-120" y="-20" width="35" height="40" fill="#FF9999"/>
      <rect x="-85" y="-20" width="7" height="40" fill="#BDC3C7"/>
      
      <!-- Lead/graphite tip -->
      <path d="M80,-20 L120,0 L80,20 L80,-20" fill="#2C3E50"/>
    </g>
    
    <!-- Second Pencil -->
    <g transform="rotate(45)">
      <!-- Hexagonal pencil body -->
      <path d="M-120,-20 L-120,20 L80,20 L120,0 L80,-20 Z" fill="#F4D03F"/>
      <path d="M-120,-20 L-120,-10 L80,-10 L120,0 L80,-20 Z" fill="#F7DC6F"/>
      <path d="M-120,20 L-120,10 L80,10 L120,0 L80,20 Z" fill="#D4AC0D"/>
      
      <!-- Eraser and metal band -->
      <rect x="-120" y="-20" width="35" height="40" fill="#FF9999"/>
      <rect x="-85" y="-20" width="7" height="40" fill="#BDC3C7"/>
      
      <!-- Lead/graphite tip -->
      <path d="M80,-20 L120,0 L80,20 L80,-20" fill="#2C3E50"/>
    </g>
  </g>
  
  <!-- Gradient definition -->
  <defs>
    <linearGradient id="shield-gradient" x1="72" y1="32" x2="440" y2="480" gradientUnits="userSpaceOnUse">
      <stop offset="0%" stop-color="#4F46E5"/>
      <stop offset="100%" stop-color="#7C3AED"/>
    </linearGradient>
  </defs>
</svg> 